# Blender 3.6.0
# www.blender.org
mtllib new.mtl
o Mesh0
v -0.142023 -0.016422 -0.665275
v -0.150086 0.011958 -0.673080
v -0.059999 -0.017219 -0.677572
v -0.075421 0.006457 -0.683164
v -0.077089 0.012648 -0.629496
v -0.060254 0.036704 -0.641209
v 0.006957 -0.039241 -0.540510
v 0.046489 -0.042313 -0.621392
v -0.002572 0.029653 -0.493973
v -0.009673 0.037239 -0.544704
v 0.047795 0.040617 -0.620364
v 0.066532 0.017082 -0.613247
v 0.050513 0.014531 -0.585500
v 0.000428 0.002416 -0.996200
v 0.011605 -0.012788 0.966478
v -0.003916 0.017929 0.966876
v -0.002640 0.004203 0.992321
v -0.188069 0.005675 -0.660220
v -0.208831 0.002158 -0.707597
v -0.196734 -0.014916 -0.711494
v -0.158942 -0.016748 -0.618641
v -0.184350 0.006130 -0.607872
v -0.184358 -0.002487 -0.724472
v -0.136175 -0.005537 -0.699108
v -0.145857 0.012418 -0.617862
v -0.197492 0.011319 -0.711942
v -0.076079 -0.006092 -0.771005
v -0.039967 -0.046422 -0.780407
v -0.050166 0.033236 -0.675825
v -0.061568 0.029126 -0.772430
v -0.020953 0.051207 -0.616463
v -0.016629 0.051826 -0.675853
v -0.000036 -0.032801 -0.417927
v -0.025011 -0.023649 -0.421326
v -0.026954 -0.031385 -0.522564
v -0.046342 -0.045425 -0.620614
v 0.027262 -0.027038 -0.524242
v 0.020621 -0.023865 -0.421980
v 0.032761 -0.043032 -0.695471
v 0.090931 -0.008885 -0.686210
v 0.101328 -0.017014 -0.639889
v -0.004192 0.029232 -0.417431
v 0.018202 0.022719 -0.419108
v 0.024032 0.027245 -0.524735
v -0.024785 0.021689 -0.516411
v -0.025461 0.019821 -0.420044
v 0.032550 0.042603 -0.673643
v 0.098139 0.011909 -0.647965
v 0.071935 0.008756 -0.682869
v 0.108197 0.012376 -0.616450
v -0.024931 -0.010478 -0.939949
v -0.022362 0.002412 -0.957788
v -0.008071 -0.007499 -0.980943
v -0.005146 -0.017259 -0.955950
v 0.019327 0.007992 -0.940189
v 0.014605 -0.005294 -0.957231
v 0.001378 0.015646 -0.954659
v -0.004224 -0.000639 -0.996591
v -0.013599 0.008104 -0.958865
v 0.004890 -0.012168 -0.959557
v -0.000963 -0.013370 0.980061
v 0.003410 -0.042160 0.908380
v 0.029214 -0.026523 0.908600
v 0.037538 0.002030 0.908956
v 0.008562 0.000188 0.981503
v -0.002066 -0.002534 0.995488
v -0.012879 -0.016200 0.965504
v -0.012651 -0.003042 0.980803
v -0.011785 0.005912 0.979835
v 0.006151 0.008511 0.980473
v 0.023109 0.028364 0.909939
v -0.005897 0.039541 0.908879
v -0.035201 0.024620 0.907723
v -0.043549 -0.008358 0.907087
v -0.005849 0.050883 0.844446
v -0.042657 0.032170 0.842869
v -0.055677 -0.007944 0.842529
v -0.035704 -0.044033 0.842645
v -0.027546 -0.034513 0.907668
v -0.038474 0.028461 0.811037
v -0.049341 -0.006770 0.810179
v -0.032387 -0.040606 0.812171
v 0.003771 -0.050452 0.810721
v 0.004087 -0.054938 0.844462
v -0.036682 -0.005541 0.699108
v -0.024229 -0.030395 0.697418
v 0.001895 -0.038137 0.696772
v 0.027066 -0.025247 0.696330
v 0.034755 -0.030641 0.810215
v -0.026181 -0.030947 0.582830
v 0.001005 -0.038440 0.582625
v 0.026773 -0.025207 0.582556
v 0.034828 0.001666 0.582630
v 0.034282 0.001442 0.696507
v 0.001405 -0.040695 0.466559
v 0.027304 -0.026381 0.466643
v 0.036574 0.001762 0.466544
v 0.023083 0.028427 0.466324
v 0.021249 0.026842 0.582707
v 0.027824 -0.027270 0.349795
v 0.037102 0.001514 0.349792
v 0.023292 0.028277 0.349673
v -0.005112 0.036377 0.349509
v -0.005870 0.036702 0.466197
v 0.034559 0.000708 0.234366
v 0.022643 0.026256 0.234204
v -0.004651 0.035734 0.234134
v -0.030464 0.021676 0.234204
v -0.031718 0.022859 0.349427
v 0.022550 0.025525 0.120390
v -0.004327 0.034094 0.120396
v -0.029795 0.021168 0.120251
v -0.040136 -0.006027 0.119899
v -0.040490 -0.006020 0.234308
v -0.004576 0.034202 0.007449
v -0.030093 0.021719 0.007571
v -0.037685 -0.005154 0.007760
v -0.025068 -0.029566 0.007508
v -0.026752 -0.032048 0.119989
v -0.028907 0.021346 -0.103204
v -0.037626 -0.004208 -0.103158
v -0.024863 -0.029044 -0.103326
v 0.000996 -0.037759 -0.103217
v 0.000668 -0.037385 0.007301
v -0.034007 -0.003971 -0.209494
v -0.022827 -0.025946 -0.209706
v 0.000427 -0.033199 -0.209867
v 0.022292 -0.023218 -0.209679
v 0.024662 -0.025252 -0.103089
v -0.023666 -0.025529 -0.313455
v -0.000599 -0.032773 -0.313547
v 0.021258 -0.022524 -0.313622
v 0.029423 0.000535 -0.313634
v 0.031206 0.000644 -0.209643
v 0.029988 0.000396 -0.418355
v 0.018195 0.022200 -0.313584
v 0.035002 -0.001279 -0.524802
v -0.004812 0.030199 -0.313508
v -0.003985 0.029470 -0.209457
v 0.019236 0.022289 -0.209523
v -0.004267 0.032714 -0.103064
v 0.021057 0.023871 -0.102795
v 0.032783 0.000324 -0.102853
v 0.022316 0.025726 0.007144
v 0.034386 -0.000227 0.007015
v 0.025804 -0.025975 0.007133
v 0.035495 0.000135 0.120405
v 0.026581 -0.026914 0.120304
v 0.001036 -0.039761 0.120136
v 0.025656 -0.025821 0.234546
v 0.001161 -0.039505 0.234464
v -0.026669 -0.031909 0.234392
v 0.001242 -0.040353 0.349727
v -0.026861 -0.031672 0.349586
v -0.041003 -0.005556 0.349451
v -0.027329 -0.032035 0.466355
v -0.040882 -0.005492 0.466204
v -0.032105 0.022606 0.466153
v -0.039784 -0.005790 0.583018
v -0.031656 0.022264 0.583074
v -0.005980 0.035649 0.582963
v -0.029086 0.019763 0.698355
v -0.004890 0.033857 0.696389
v 0.021383 0.025752 0.696192
v -0.004954 0.042580 0.809002
v 0.027432 0.032712 0.807240
v 0.043448 0.003732 0.807579
v 0.031319 0.037737 0.845698
v 0.048026 0.005107 0.845785
v 0.038928 -0.033536 0.845626
v -0.025773 0.018823 -0.209433
v -0.026669 0.019339 -0.313426
v -0.034966 -0.004135 -0.313408
v -0.035067 -0.004261 -0.421476
v -0.044095 -0.002122 -0.526972
v 0.043167 -0.013995 -0.883213
v 0.014099 -0.035098 -0.883153
v -0.022311 -0.034300 -0.884335
v 0.019733 -0.056059 -0.776823
v -0.049720 -0.012307 -0.883703
v -0.048715 0.008664 -0.884304
v -0.022667 0.053180 -0.774921
v -0.020410 0.030238 -0.884104
v 0.029028 0.046486 -0.775516
v 0.015306 0.030292 -0.885427
v 0.069346 0.006841 -0.758909
v 0.045107 0.009975 -0.884624
v 0.053785 -0.035798 -0.758453
v 0.132934 0.005347 -0.577696
v 0.153256 0.015229 -0.585000
v 0.107804 0.007129 -0.600655
v 0.106234 -0.007846 -0.600774
v 0.133826 -0.007253 -0.577685
v 0.155990 -0.016645 -0.580693
v 0.147794 -0.017174 -0.618546
v 0.146612 0.012627 -0.620809
v 0.101743 -0.017010 -0.609966
v 0.063276 -0.005243 -0.585868
v 0.049527 -0.036746 -0.600969
v -0.098658 -0.002854 -0.602847
v -0.096209 0.011550 -0.608616
v -0.137244 0.013345 -0.588766
v -0.127459 -0.002695 -0.588383
v -0.140818 -0.016819 -0.587518
v -0.088299 -0.016490 -0.606608
v -0.163385 0.007975 -0.579909
v -0.040869 0.024109 -0.588896
vn -0.1885 -0.9768 -0.1020
vn -0.9170 0.2325 0.3240
vn -0.9732 0.0709 -0.2187
vn -0.4205 -0.8523 -0.3110
vn -0.3678 -0.9257 0.0881
vn -0.9464 0.2001 0.2537
vn 0.1040 -0.0334 -0.9940
vn 0.2869 -0.2322 -0.9294
vn 0.0265 0.9686 -0.2470
vn -0.0776 0.9970 -0.0021
vn -0.3603 0.9083 0.2125
vn -0.6767 0.6252 -0.3890
vn -0.2782 0.8244 -0.4930
vn -0.3715 -0.9147 -0.1592
vn -0.9839 -0.1626 -0.0739
vn -0.4564 -0.8896 -0.0164
vn -0.6272 0.7765 -0.0599
vn -0.7540 0.6505 -0.0912
vn -0.6148 0.7870 0.0521
vn -0.2192 0.9640 0.1503
vn -0.1385 0.9903 -0.0065
vn 0.1226 -0.9851 0.1207
vn 0.0641 -0.9975 0.0289
vn -0.6388 -0.7687 0.0312
vn -0.4983 -0.8557 0.1397
vn -0.2674 -0.9632 0.0288
vn 0.2212 -0.9751 -0.0163
vn 0.7016 -0.6910 0.1739
vn 0.7384 -0.6732 0.0395
vn 0.2229 -0.9740 -0.0415
vn 0.9554 -0.1559 -0.2510
vn 0.5833 -0.7292 -0.3578
vn -0.0827 0.9950 0.0560
vn -0.0790 0.9968 0.0086
vn 0.6317 0.7748 0.0254
vn 0.5376 0.8213 0.1908
vn -0.5921 0.7956 0.1281
vn -0.6948 0.7191 0.0114
vn -0.2165 0.9568 0.1942
vn 0.4391 0.8938 0.0911
vn 0.3701 0.9273 -0.0564
vn 0.6749 0.6681 -0.3133
vn 0.6133 0.7732 -0.1615
vn 0.4355 0.8593 0.2681
vn 0.0752 0.9861 0.1479
vn 0.8114 0.4602 -0.3603
vn 0.8765 -0.2384 -0.4182
vn 0.4631 0.3408 -0.8182
vn 0.2564 0.9094 -0.3275
vn -0.1383 0.0443 -0.9894
vn -0.5560 0.7602 -0.3362
vn 0.3976 -0.8542 -0.3351
vn 0.7287 -0.5612 0.3925
vn 0.0877 -0.8162 0.5711
vn 0.1363 -0.9512 0.2768
vn 0.7671 -0.5816 0.2707
vn 0.9595 0.0970 0.2643
vn 0.8468 -0.0345 0.5307
vn 0.0052 -0.2178 0.9760
vn -0.5570 -0.7277 0.4001
vn -0.8214 -0.2273 0.5231
vn -0.0839 0.9187 0.3859
vn -0.6567 0.5587 0.5065
vn -0.0788 0.5562 0.8273
vn 0.4945 0.6998 0.5155
vn 0.6423 0.7191 0.2653
vn -0.0721 0.9612 0.2663
vn -0.7609 0.5908 0.2685
vn -0.9524 -0.1323 0.2746
vn -0.0625 0.9980 -0.0109
vn -0.7604 0.6493 -0.0131
vn -0.9946 -0.1039 -0.0017
vn -0.6187 -0.7856 0.0105
vn -0.5826 -0.7630 0.2800
vn -0.7477 0.6464 -0.1519
vn -0.9856 -0.0841 -0.1466
vn -0.6224 -0.7703 -0.1388
vn 0.1359 -0.9833 -0.1212
vn 0.1405 -0.9897 0.0266
vn -0.9949 -0.0901 -0.0460
vn -0.6335 -0.7722 -0.0486
vn 0.1109 -0.9926 -0.0503
vn 0.7832 -0.6201 -0.0448
vn 0.7980 -0.5924 -0.1110
vn -0.6327 -0.7743 0.0144
vn 0.0998 -0.9950 0.0095
vn 0.7714 -0.6364 0.0068
vn 0.9952 0.0975 0.0089
vn 0.9929 0.1113 -0.0412
vn 0.0985 -0.9951 0.0079
vn 0.7662 -0.6426 0.0093
vn 0.9965 0.0836 0.0096
vn 0.6369 0.7709 0.0085
vn 0.6375 0.7703 0.0122
vn 0.7631 -0.6462 -0.0067
vn 0.9972 0.0745 -0.0081
vn 0.6430 0.7658 -0.0076
vn -0.0950 0.9955 -0.0068
vn -0.0991 0.9951 0.0043
vn 0.9977 0.0680 -0.0074
vn 0.6555 0.7551 -0.0103
vn -0.0850 0.9963 -0.0113
vn -0.7552 0.6554 -0.0095
vn -0.7618 0.6478 -0.0063
vn 0.6567 0.7541 -0.0037
vn -0.0790 0.9969 -0.0042
vn -0.7534 0.6575 -0.0050
vn -0.9974 -0.0716 -0.0098
vn -0.9973 -0.0728 -0.0045
vn -0.0702 0.9975 -0.0059
vn -0.7557 0.6548 -0.0050
vn -0.9965 -0.0827 -0.0106
vn -0.6409 -0.7675 -0.0139
vn -0.6312 -0.7755 -0.0121
vn -0.7491 0.6621 -0.0217
vn -0.9969 -0.0763 -0.0197
vn -0.6472 -0.7620 -0.0196
vn 0.0730 -0.9971 -0.0200
vn 0.0768 -0.9970 -0.0113
vn -0.9976 -0.0674 -0.0132
vn -0.6453 -0.7637 -0.0166
vn 0.0694 -0.9974 -0.0216
vn 0.7435 -0.6684 -0.0211
vn 0.7526 -0.6582 -0.0193
vn -0.6456 -0.7637 0.0003
vn 0.0548 -0.9985 -0.0031
vn 0.7347 -0.6784 -0.0041
vn 0.9977 0.0676 -0.0057
vn 0.9971 0.0739 -0.0175
vn 0.9980 0.0554 0.0305
vn 0.6428 0.7660 -0.0027
vn 0.9739 0.0318 0.2246
vn -0.0690 0.9976 0.0006
vn -0.0651 0.9978 -0.0125
vn 0.6450 0.7640 -0.0143
vn -0.0617 0.9979 -0.0219
vn 0.6541 0.7562 -0.0191
vn 0.9973 0.0713 -0.0178
vn 0.6565 0.7543 -0.0095
vn 0.9978 0.0657 -0.0114
vn 0.7530 -0.6579 -0.0111
vn 0.9978 0.0662 -0.0009
vn 0.7567 -0.6538 -0.0019
vn 0.0955 -0.9954 -0.0078
vn 0.7632 -0.6461 -0.0046
vn 0.1046 -0.9945 -0.0020
vn -0.6280 -0.7782 -0.0008
vn 0.0958 -0.9954 -0.0045
vn -0.6335 -0.7738 -0.0025
vn -0.9965 -0.0836 -0.0037
vn -0.6351 -0.7724 0.0053
vn -0.9958 -0.0909 0.0039
vn -0.7692 0.6391 0.0026
vn -0.9952 -0.0965 0.0174
vn -0.7754 0.6312 0.0172
vn -0.0981 0.9951 0.0146
vn -0.7709 0.6357 -0.0396
vn -0.0905 0.9953 -0.0338
vn 0.6356 0.7711 -0.0379
vn -0.0682 0.9870 -0.1453
vn 0.6346 0.7623 -0.1273
vn 0.9869 0.1182 -0.1102
vn 0.6507 0.7593 0.0086
vn 0.9921 0.1234 0.0208
vn 0.8061 -0.5913 0.0251
vn -0.7445 0.6675 -0.0128
vn -0.7415 0.6709 0.0022
vn -0.9979 -0.0643 0.0038
vn -0.9992 -0.0264 0.0299
vn -0.9698 0.0162 0.2434
vn 0.8327 -0.4818 -0.2730
vn 0.2958 -0.9255 -0.2364
vn -0.3514 -0.9068 -0.2330
vn -0.2395 -0.9095 -0.3397
vn -0.4935 -0.6306 -0.5991
vn 0.1928 -0.9808 -0.0297
vn -0.8907 -0.3595 -0.2783
vn -0.7867 -0.5062 -0.3533
vn -0.8405 0.4628 -0.2816
vn -0.9015 0.0911 -0.4231
vn -0.2262 0.9703 -0.0859
vn -0.3111 0.9219 -0.2310
vn 0.4133 0.9061 -0.0901
vn 0.3159 0.9217 -0.2253
vn 0.9668 0.2152 -0.1382
vn 0.8946 0.3534 -0.2736
vn 0.7187 -0.6887 -0.0959
vn -0.2685 0.4523 0.8505
vn 0.5931 0.6910 0.4133
vn -0.1646 0.6971 0.6979
vn -0.1550 -0.4228 0.8929
vn -0.2787 -0.2853 0.9170
vn 0.6301 -0.5471 0.5511
vn 0.6251 -0.6391 -0.4481
vn 0.6222 0.5911 -0.5133
vn 0.1584 -0.9166 0.3670
vn 0.7286 0.5273 0.4371
vn 0.6384 -0.1778 0.7489
vn 0.4788 -0.8237 0.3036
vn 0.5137 0.1205 0.8495
vn 0.4081 0.7479 0.5235
vn 0.1482 0.7525 0.6417
vn 0.3591 0.0472 0.9321
vn -0.0327 -0.7169 0.6964
vn -0.3640 -0.6677 0.6494
vn -0.5037 0.2870 0.8148
vn -0.6458 0.7072 0.2878
vt 0.245570 0.836474
vt 0.270945 0.836080
vt 0.278186 0.860936
vt 0.269897 0.862541
vt 0.255942 0.814159
vt 0.271751 0.809752
vt 0.264956 0.868084
vt 0.242559 0.852813
vt 0.417172 0.198556
vt 0.405031 0.212770
vt 0.381080 0.201760
vt 0.391960 0.186801
vt 0.409109 0.157670
vt 0.434923 0.165794
vt 0.427372 0.226976
vt 0.423924 0.230272
vt 0.436270 0.155001
vt 0.432745 0.194839
vt 0.205337 0.838066
vt 0.215647 0.841249
vt 0.210036 0.885348
vt 0.186815 0.888820
vt 0.291454 0.841462
vt 0.308426 0.838106
vt 0.304300 0.886429
vt 0.285191 0.885589
vt 0.294230 0.814472
vt 0.308434 0.820551
vt 0.000000 0.820430
vt 0.017021 0.807515
vt 0.019403 0.837291
vt 0.005558 0.837755
vt 0.176786 0.766405
vt 0.186955 0.705521
vt 0.200044 0.708426
vt 0.195043 0.759185
vt 0.197767 0.809447
vt 0.153404 0.804614
vt 0.169411 0.756923
vt 0.177991 0.706220
vt 0.156333 0.842344
vt 0.133287 0.833823
vt 0.129441 0.810298
vt 0.027992 0.746052
vt 0.026791 0.707638
vt 0.038512 0.708342
vt 0.041400 0.761284
vt 0.018393 0.757594
vt 0.017716 0.709230
vt 0.023871 0.771516
vt 0.051772 0.808961
vt 0.044446 0.835830
vt 0.080101 0.822644
vt 0.068016 0.840435
vt 0.063883 0.805445
vt 0.084725 0.806726
vt 0.044181 0.970117
vt 0.043726 0.978843
vt 0.036085 0.998464
vt 0.034566 0.977470
vt 0.034229 0.998731
vt 0.028310 0.979788
vt 0.379941 0.154770
vt 0.382130 0.135461
vt 0.386872 0.136712
vt 0.382111 0.155001
vt 0.348794 0.014701
vt 0.350858 0.007690
vt 0.364726 0.043551
vt 0.353280 0.043929
vt 0.338346 0.044063
vt 0.342897 0.007197
vt 0.345681 0.000000
vt 0.262425 0.015825
vt 0.257764 0.007846
vt 0.260484 -0.000000
vt 0.264806 0.007923
vt 0.019884 0.012656
vt 0.017554 0.006335
vt 0.022136 -0.000000
vt 0.025911 0.005829
vt 0.031983 0.040905
vt 0.016464 0.041589
vt 0.313190 0.014266
vt 0.322920 0.043278
vt 0.310877 0.043425
vt 0.306204 0.007670
vt 0.306985 0.001558
vt 0.301828 0.007199
vt 0.303907 -0.000000
vt 0.383383 0.378010
vt 0.386734 0.376859
vt 0.386734 0.384711
vt 0.382382 0.384797
vt 0.293871 0.043714
vt 0.004202 0.042574
vt 0.015406 0.073833
vt -0.000000 0.075133
vt 0.313013 0.075835
vt 0.291839 0.075922
vt 0.278186 0.079384
vt 0.263768 0.078922
vt 0.264255 0.045848
vt 0.275416 0.046515
vt 0.311892 0.091896
vt 0.293392 0.092262
vt 0.280294 0.091652
vt 0.278186 0.076310
vt 0.261148 0.093872
vt 0.242342 0.092779
vt 0.243229 0.076018
vt 0.295849 0.148225
vt 0.286220 0.149360
vt 0.253010 0.150460
vt 0.239359 0.149482
vt 0.365332 0.149787
vt 0.355304 0.150470
vt 0.355464 0.093377
vt 0.369695 0.092529
vt 0.248322 0.207739
vt 0.234213 0.206476
vt 0.223551 0.204820
vt 0.228920 0.148051
vt 0.356565 0.207583
vt 0.342478 0.207844
vt 0.341434 0.150665
vt 0.228094 0.264394
vt 0.217519 0.262633
vt 0.358302 0.265774
vt 0.343424 0.266148
vt 0.332754 0.266233
vt 0.332531 0.207768
vt 0.359915 0.324437
vt 0.344728 0.324767
vt 0.334060 0.324796
vt 0.035529 0.322224
vt 0.020697 0.322482
vt 0.019569 0.263895
vt 0.034691 0.263652
vt 0.346757 0.382670
vt 0.336379 0.382742
vt 0.036188 0.380228
vt 0.021714 0.380417
vt 0.319639 0.382039
vt 0.308602 0.381625
vt 0.309237 0.323758
vt 0.320155 0.324110
vt 0.036938 0.437384
vt 0.022784 0.437539
vt 0.318634 0.439147
vt 0.308190 0.438843
vt 0.293577 0.438938
vt 0.293808 0.381498
vt 0.012116 0.437963
vt 0.023344 0.494253
vt 0.012593 0.494539
vt 0.308116 0.495403
vt 0.294125 0.495271
vt 0.284737 0.495684
vt 0.283560 0.439198
vt 0.307864 0.551034
vt 0.294304 0.550950
vt 0.284740 0.551326
vt 0.214673 0.549898
vt 0.201057 0.548577
vt 0.206623 0.493459
vt 0.220076 0.494633
vt 0.294765 0.604391
vt 0.286284 0.604753
vt 0.208946 0.602789
vt 0.196766 0.601718
vt 0.187565 0.600214
vt 0.191320 0.546953
vt 0.204375 0.654579
vt 0.192291 0.653485
vt 0.183116 0.652107
vt 0.365855 0.657421
vt 0.353577 0.657701
vt 0.352122 0.605523
vt 0.364900 0.605250
vt 0.367770 0.711801
vt 0.354692 0.710281
vt 0.345843 0.710630
vt 0.344946 0.657651
vt 0.369376 0.763217
vt 0.355877 0.763784
vt 0.343928 0.763774
vt 0.037927 0.655361
vt 0.025725 0.655452
vt 0.025581 0.603206
vt 0.037781 0.603100
vt 0.343615 0.605426
vt 0.024367 0.549755
vt 0.037802 0.549478
vt 0.341420 0.551883
vt 0.350873 0.551933
vt 0.339146 0.496723
vt 0.349698 0.496797
vt 0.363325 0.496440
vt 0.364351 0.551762
vt 0.348124 0.439891
vt 0.362426 0.439631
vt 0.196018 0.491922
vt 0.201005 0.435446
vt 0.211600 0.437200
vt 0.207135 0.378489
vt 0.217117 0.380159
vt 0.231536 0.381593
vt 0.226011 0.438667
vt 0.222554 0.322675
vt 0.237245 0.324138
vt 0.247526 0.324480
vt 0.241635 0.381897
vt 0.235916 0.438947
vt 0.243083 0.265924
vt 0.253137 0.266233
vt 0.294228 0.323685
vt 0.294572 0.265076
vt 0.309344 0.265154
vt 0.294912 0.206453
vt 0.309553 0.206468
vt 0.320249 0.206902
vt 0.320472 0.265518
vt 0.309097 0.148646
vt 0.319872 0.149985
vt 0.018936 0.205276
vt 0.019000 0.148329
vt 0.032801 0.148271
vt 0.033292 0.205245
vt 0.017140 0.091702
vt 0.034145 0.092391
vt 0.045688 0.092355
vt 0.042224 0.148231
vt 0.331800 0.150790
vt 0.337724 0.095056
vt 0.326337 0.095178
vt 0.322920 0.075962
vt 0.335948 0.075954
vt 0.355822 0.075643
vt 0.371424 0.075565
vt 0.327966 0.043527
vt 0.035140 0.072998
vt 0.002708 0.091114
vt 0.009088 0.147694
vt 0.258231 0.207909
vt 0.262398 0.149823
vt 0.211485 0.320908
vt 0.360806 0.382272
vt 0.337978 0.439873
vt 0.037494 0.494247
vt 0.013898 0.550155
vt 0.016400 0.603490
vt 0.306939 0.604422
vt 0.016537 0.655710
vt 0.306769 0.656610
vt 0.294264 0.656541
vt 0.286078 0.656821
vt 0.306935 0.710152
vt 0.293916 0.710792
vt 0.212668 0.654765
vt 0.207460 0.708680
vt 0.307691 0.758534
vt 0.293125 0.763596
vt 0.206981 0.761764
vt 0.248353 0.043922
vt 0.339300 0.007733
vt 0.383198 0.098673
vt 0.397767 0.098903
vt 0.161065 0.975020
vt 0.157282 0.936845
vt 0.174878 0.939443
vt 0.165400 0.973879
vt 0.166895 0.986317
vt 0.165194 0.993775
vt 0.156935 0.883902
vt 0.191043 0.940221
vt 0.176612 0.966864
vt 0.286458 0.942619
vt 0.296538 0.942868
vt 0.297886 0.980212
vt 0.291402 0.971257
vt 0.322283 0.888240
vt 0.311552 0.943163
vt 0.302065 0.980878
vt 0.021663 0.942098
vt 0.016907 0.887076
vt 0.042858 0.886977
vt 0.038988 0.942443
vt 0.067478 0.878657
vt 0.056085 0.941968
vt 0.371424 0.098896
vt 0.371424 0.036023
vt 0.394201 0.036583
vt 0.375360 0.126663
vt 0.322920 0.838611
vt 0.408808 0.046013
vt 0.299435 1.000000
vt 0.295577 0.992104
vt 0.097402 0.787113
vt 0.106017 0.790504
vt 0.085121 0.798849
vt 0.389363 0.362933
vt 0.389363 0.374577
vt 0.382382 0.376859
vt 0.383843 0.364722
vt 0.374328 0.230272
vt 0.389107 0.232543
vt 0.385198 0.251112
vt 0.371424 0.248094
vt 0.103353 0.808569
vt 0.106017 0.777725
vt 0.118093 0.777272
vt 0.130192 0.790335
vt 0.130692 0.795349
vt 0.108061 0.797073
vt 0.378523 0.362933
vt 0.371424 0.334027
vt 0.382097 0.338947
vt 0.385860 0.361474
vt 0.371424 0.802005
vt 0.354086 0.794837
vt 0.379834 0.318768
vt 0.372438 0.321101
vt 0.371424 0.298246
vt 0.379696 0.302617
vt 0.386465 0.296191
vt 0.386733 0.324224
vt 0.396122 0.162488
vt 0.379723 0.177787
vt 0.371424 0.187445
vt 0.263248 0.794602
vt 0.248707 0.797628
vt 0.436270 0.221629
vt 0.222514 0.804226
vt 0.176223 0.975368
vt 0.377784 0.382929
vt 0.379271 0.389433
vt 0.371424 0.389433
vt 0.372625 0.379122
vt 0.371668 0.368206
vt 0.382382 0.362933
vt 0.382382 0.379122
vt 0.371424 0.374529
vt 0.373864 0.284391
vt 0.371424 0.334027
vt 0.317540 0.772935
vt 0.322040 0.808728
vt 0.305914 0.794650
vt 0.278609 0.802893
vt 0.056275 0.791680
vt 0.346592 0.794592
vt 0.380365 0.284391
vt 0.375210 0.262847
vt 0.389107 0.262879
vt 0.079550 0.842111
vt 0.376901 -0.000000
vt 0.402027 0.004999
vt 0.153670 0.794149
vt 0.396437 0.334027
vt 0.389871 0.360768
s 1
usemtl Material.002
f 1/1/1 18/2/2 19/3/3 20/4/4
f 1/1/1 21/5/5 22/6/6 18/2/2
f 1/1/1 20/4/4 23/7/7 24/8/8
f 2/9/9 18/10/2 22/11/6 25/12/10
f 2/9/9 25/12/10 5/13/11 4/14/12
f 2/9/9 26/15/13 19/16/3 18/10/2
f 2/9/9 4/14/12 3/17/14 24/18/8
f 3/19/14 4/20/12 27/21/15 28/22/16
f 4/23/12 29/24/17 30/25/18 27/26/15
f 4/23/12 5/27/11 6/28/19 29/24/17
f 6/29/19 31/30/20 32/31/21 29/32/17
f 7/33/22 33/34/23 34/35/24 35/36/25
f 7/33/22 35/36/25 36/37/26 8/38/27
f 7/33/22 37/39/28 38/40/29 33/34/23
f 8/38/27 39/41/30 40/42/31 41/43/32
f 9/44/33 42/45/34 43/46/35 44/47/36
f 45/48/37 46/49/38 42/45/34 9/44/33
f 9/44/33 44/47/36 10/50/39 45/48/37
f 10/50/39 44/47/36 11/51/40 31/30/20
f 11/51/40 47/52/41 32/31/21 31/30/20
f 11/51/40 48/53/42 49/54/43 47/52/41
f 11/51/40 12/55/44 50/56/45 48/53/42
f 55/57/46 56/58/47 14/59/48 57/60/49
f 14/59/48 58/61/50 59/62/51 57/60/49
f 14/63/48 56/64/47 60/65/52 58/66/50
f 15/67/53 61/68/54 62/69/55 63/70/56
f 15/67/53 63/70/56 64/71/57 65/72/58
f 15/67/53 65/72/58 66/73/59 61/68/54
f 67/74/60 61/75/54 66/76/59 68/77/61
f 16/78/62 69/79/63 17/80/64 70/81/65
f 16/78/62 70/81/65 71/82/66 72/83/67
f 16/84/62 72/85/67 73/86/68 69/87/63
f 17/88/64 69/87/63 68/89/61 66/90/59
f 17/91/64 66/92/59 65/93/58 70/94/65
f 73/86/68 74/95/69 68/89/61 69/87/63
f 73/96/68 72/83/67 75/97/70 76/98/71
f 73/86/68 76/99/71 77/100/72 74/95/69
f 77/101/72 78/102/73 79/103/74 74/104/69
f 77/100/72 76/99/71 80/105/75 81/106/76
f 77/100/72 81/106/76 82/107/77 78/108/73
f 82/109/77 83/110/78 84/111/79 78/102/73
f 82/107/77 81/106/76 85/112/80 86/113/81
f 82/109/77 86/114/81 87/115/82 83/110/78
f 87/116/82 88/117/83 89/118/84 83/119/78
f 87/115/82 86/114/81 90/120/85 91/121/86
f 87/115/82 91/121/86 92/122/87 88/123/83
f 92/124/87 93/125/88 94/126/89 88/117/83
f 92/122/87 91/121/86 95/127/90 96/128/91
f 92/124/87 96/129/91 97/130/92 93/125/88
f 97/130/92 98/131/93 99/132/94 93/125/88
f 97/130/92 96/129/91 100/133/95 101/134/96
f 97/130/92 101/134/96 102/135/97 98/131/93
f 102/136/97 103/137/98 104/138/99 98/139/93
f 102/135/97 101/134/96 105/140/100 106/141/101
f 102/136/97 106/142/101 107/143/102 103/137/98
f 107/144/102 108/145/103 109/146/104 103/147/98
f 107/143/102 106/142/101 110/148/105 111/149/106
f 107/144/102 111/150/106 112/151/107 108/145/103
f 112/151/107 113/152/108 114/153/109 108/145/103
f 112/154/107 111/149/106 115/155/110 116/156/111
f 112/151/107 116/157/111 117/158/112 113/152/108
f 117/158/112 118/159/113 119/160/114 113/152/108
f 117/158/112 116/157/111 120/161/115 121/162/116
f 117/158/112 121/162/116 122/163/117 118/159/113
f 122/164/117 123/165/118 124/166/119 118/167/113
f 122/163/117 121/162/116 125/168/120 126/169/121
f 122/164/117 126/170/121 127/171/122 123/165/118
f 127/171/122 128/172/123 129/173/124 123/165/118
f 127/171/122 126/170/121 130/174/125 131/175/126
f 127/171/122 131/175/126 132/176/127 128/172/123
f 132/177/127 133/178/128 134/179/129 128/180/123
f 132/176/127 131/175/126 33/34/23 38/40/29
f 132/177/127 38/181/29 135/182/130 133/178/128
f 135/182/130 43/183/35 136/184/131 133/178/128
f 135/182/130 38/181/29 37/185/28 137/186/132
f 135/182/130 137/186/132 44/187/36 43/183/35
f 136/188/131 138/189/133 139/190/134 140/191/135
f 136/184/131 140/192/135 134/179/129 133/178/128
f 136/188/131 43/46/35 42/45/34 138/189/133
f 140/191/135 139/190/134 141/193/136 142/194/137
f 140/192/135 142/195/137 143/196/138 134/179/129
f 143/196/138 142/195/137 144/197/139 145/198/140
f 143/196/138 145/198/140 146/199/141 129/200/124
f 143/196/138 129/200/124 128/180/123 134/179/129
f 146/199/141 145/198/140 147/201/142 148/202/143
f 146/203/141 148/204/143 149/205/144 124/166/119
f 146/203/141 124/166/119 123/165/118 129/173/124
f 149/205/144 148/204/143 150/206/145 151/207/146
f 149/205/144 151/207/146 152/208/147 119/209/114
f 149/205/144 119/209/114 118/167/113 124/166/119
f 152/208/147 151/207/146 153/210/148 154/211/149
f 152/208/147 154/211/149 155/212/150 114/213/109
f 152/208/147 114/213/109 113/214/108 119/209/114
f 155/212/150 154/211/149 156/215/151 157/216/152
f 155/217/150 157/218/152 158/219/153 109/146/104
f 155/217/150 109/146/104 108/145/103 114/153/109
f 158/219/153 157/218/152 159/220/154 160/221/155
f 158/219/153 160/221/155 161/222/156 104/223/99
f 158/219/153 104/223/99 103/147/98 109/146/104
f 161/222/156 160/221/155 162/224/157 163/225/158
f 161/226/156 163/227/158 164/228/159 99/229/94
f 161/226/156 99/229/94 98/139/93 104/138/99
f 164/228/159 163/227/158 165/230/160 166/231/161
f 164/228/159 166/231/161 167/232/162 94/233/89
f 164/234/159 94/126/89 93/125/88 99/132/94
f 167/235/162 166/236/161 168/237/163 169/238/164
f 167/235/162 169/238/164 170/239/165 89/118/84
f 167/235/162 89/118/84 88/117/83 94/126/89
f 170/239/165 169/238/164 64/71/57 63/70/56
f 170/239/165 63/70/56 62/69/55 84/240/79
f 170/239/165 84/240/79 83/119/78 89/118/84
f 169/238/164 168/237/163 71/241/66 64/71/57
f 168/242/163 75/97/70 72/83/67 71/82/66
f 168/242/163 166/231/161 165/230/160 75/97/70
f 165/230/160 80/243/75 76/98/71 75/97/70
f 165/230/160 163/227/158 162/244/157 80/243/75
f 162/224/157 85/112/80 81/106/76 80/105/75
f 162/224/157 160/221/155 159/220/154 85/112/80
f 159/245/154 90/120/85 86/114/81 85/246/80
f 159/245/154 157/216/152 156/215/151 90/120/85
f 156/215/151 95/127/90 91/121/86 90/120/85
f 156/215/151 154/211/149 153/210/148 95/127/90
f 153/210/148 100/247/95 96/128/91 95/127/90
f 153/210/148 151/207/146 150/206/145 100/247/95
f 150/248/145 105/140/100 101/134/96 100/133/95
f 150/248/145 148/202/143 147/201/142 105/140/100
f 147/201/142 110/249/105 106/141/101 105/140/100
f 147/201/142 145/198/140 144/197/139 110/249/105
f 144/250/139 115/155/110 111/149/106 110/148/105
f 144/250/139 142/194/137 141/193/136 115/155/110
f 141/193/136 120/251/115 116/156/111 115/155/110
f 141/193/136 139/190/134 171/252/166 120/251/115
f 171/253/166 125/168/120 121/162/116 120/161/115
f 171/252/166 139/190/134 138/189/133 172/254/167
f 171/253/166 172/255/167 173/256/168 125/168/120
f 173/256/168 130/257/125 126/169/121 125/168/120
f 173/256/168 172/255/167 46/258/38 174/259/169
f 173/260/168 174/261/169 34/35/24 130/174/125
f 174/259/169 46/258/38 45/262/37 175/263/170
f 174/261/169 175/264/170 35/36/25 34/35/24
f 172/254/167 138/189/133 42/45/34 46/49/38
f 131/175/126 130/174/125 34/35/24 33/34/23
f 84/111/79 62/265/55 79/103/74 78/102/73
f 79/103/74 62/265/55 61/75/54 67/74/60
f 79/103/74 67/74/60 68/77/61 74/104/69
f 71/241/66 70/266/65 65/72/58 64/71/57
f 60/65/52 56/64/47 176/267/171 177/268/172
f 60/269/52 177/270/172 178/271/173 54/272/174
f 60/269/52 54/272/174 53/273/175 58/274/50
f 178/271/173 177/270/172 179/275/176 28/22/16
f 178/271/173 28/22/16 27/21/15 180/276/177
f 178/271/173 180/276/177 51/277/178 54/272/174
f 180/278/177 27/26/15 30/25/18 181/279/179
f 180/278/177 181/279/179 52/280/180 51/281/178
f 181/279/179 30/25/18 182/282/181 183/283/182
f 181/279/179 183/283/182 59/284/51 52/280/180
f 183/285/182 182/286/181 184/287/183 185/288/184
f 183/285/182 185/288/184 57/60/49 59/62/51
f 185/288/184 184/287/183 186/289/185 187/290/186
f 185/288/184 187/290/186 55/57/46 57/60/49
f 187/291/186 186/292/185 188/293/187 176/267/171
f 187/291/186 176/267/171 56/64/47 55/294/46
f 182/282/181 30/25/18 29/24/17 32/295/21
f 182/286/181 32/31/21 47/52/41 184/287/183
f 177/268/172 176/267/171 188/293/187 179/296/176
f 59/284/51 58/297/50 53/298/175 52/280/180
f 189/299/188 190/300/189 50/56/45 191/301/190
f 189/302/188 191/303/190 192/304/191 193/305/192
f 190/306/189 194/307/193 195/308/194 196/309/195
f 190/300/189 196/310/195 48/53/42 50/56/45
f 194/311/193 193/312/192 192/313/191 197/314/196
f 194/311/193 197/314/196 41/43/32 195/315/194
f 191/316/190 13/317/197 198/318/198 192/319/191
f 137/186/132 37/185/28 199/320/199 198/321/198
f 179/275/176 39/41/30 3/19/14 28/22/16
f 39/41/30 8/38/27 36/37/26 3/19/14
f 200/322/200 201/323/201 202/324/202 203/325/203
f 200/322/200 203/325/203 204/326/204 205/327/205
f 201/328/201 5/13/11 25/12/10 202/329/202
f 206/330/206 202/329/202 25/12/10 22/11/6
f 206/331/206 22/6/6 21/5/5 204/332/204
f 26/15/13 2/9/9 24/18/8 23/333/7
f 21/5/5 1/1/1 205/334/205 204/332/204
f 51/277/178 52/335/180 53/273/175 54/272/174
f 19/336/3 26/337/13 23/338/7 20/339/4
f 193/340/192 194/341/193 190/342/189 189/343/188
f 206/344/206 204/326/204 203/325/203 202/324/202
f 5/345/11 201/323/201 200/322/200 205/327/205
f 3/19/14 1/1/1 24/8/8
f 3/19/14 36/37/26 205/334/205 1/1/1
f 36/37/26 35/36/25 175/264/170 205/334/205
f 45/262/37 10/346/39 31/347/20 207/348/207
f 31/347/20 6/28/19 5/27/11 207/348/207
f 5/27/11 205/349/205 175/263/170 207/348/207
f 175/263/170 45/262/37 207/348/207
f 13/350/197 191/301/190 50/56/45 12/55/44
f 13/351/197 44/187/36 137/186/132 198/321/198
f 13/350/197 12/55/44 11/51/40 44/47/36
f 40/352/31 48/353/42 41/354/32
f 48/353/42 196/309/195 195/308/194 41/354/32
f 40/355/31 186/289/185 49/54/43 48/53/42
f 186/289/185 184/287/183 47/52/41 49/54/43
f 40/356/31 39/357/30 188/293/187 186/292/185
f 39/357/30 179/296/176 188/293/187
f 199/358/199 37/39/28 7/33/22 8/38/27
f 199/359/199 197/360/196 192/319/191 198/318/198
f 199/358/199 8/38/27 41/43/32 197/314/196
